<svg xmlns="http://www.w3.org/2000/svg" xmlns:xlink="http://www.w3.org/1999/xlink" width="500" zoomAndPan="magnify" viewBox="0 0 375 374.999991" height="500" preserveAspectRatio="xMidYMid meet" version="1.0"><path fill="#e5d0cc" d="M 206.441406 180.46875 C 194.101562 177.675781 181.070312 177.675781 168.730469 180.46875 C 106.9375 194.960938 79.761719 234.695312 77.910156 282.382812 C 76.75 334.5 110.679688 341.25 174.707031 305.214844 C 182.707031 300.828125 192.59375 300.871094 200.59375 305.300781 C 261.484375 338.800781 294.679688 336.5625 297.261719 288.917969 C 297.949219 238.261719 270.945312 195.605469 206.441406 180.46875 Z M 206.441406 180.46875 " fill-opacity="1" fill-rule="nonzero"/><path fill="#e5d0cc" d="M 343.917969 152.003906 C 309 149.292969 296.183594 192.550781 295.925781 227.382812 C 295.925781 228.84375 296.097656 230.308594 296.484375 231.683594 C 306.460938 268.363281 370.148438 229.707031 373.027344 198.832031 C 374.875 179.136719 366.019531 154.625 343.917969 152.003906 Z M 343.917969 152.003906 " fill-opacity="1" fill-rule="nonzero"/><path fill="#e5d0cc" d="M 79.117188 227.382812 C 78.902344 192.550781 66.042969 149.292969 31.125 152.003906 C 9.023438 154.667969 0.125 179.179688 1.972656 198.832031 C 4.851562 229.707031 68.582031 268.363281 78.515625 231.683594 C 78.945312 230.308594 79.117188 228.84375 79.117188 227.382812 Z M 79.117188 227.382812 " fill-opacity="1" fill-rule="nonzero"/><path fill="#e5d0cc" d="M 89.480469 155.398438 C 109.390625 173.976562 129.425781 177.589844 151.488281 166.796875 C 175.179688 156.261719 178.535156 57.097656 131.621094 45.617188 C 91.929688 33.75 54.519531 123.191406 89.480469 155.398438 Z M 89.480469 155.398438 " fill-opacity="1" fill-rule="nonzero"/><path fill="#e5d0cc" d="M 243.378906 45.617188 C 196.507812 57.054688 199.863281 156.214844 223.511719 166.796875 C 245.574219 177.589844 265.609375 173.976562 285.519531 155.398438 C 320.523438 123.191406 283.113281 33.75 243.378906 45.617188 Z M 278.46875 118.417969 C 274.726562 129.082031 246.304688 138.886719 246.304688 138.886719 C 246.304688 138.886719 230.308594 113.429688 234.046875 102.765625 C 236.242188 96.488281 242.605469 92.917969 249.183594 95.242188 C 257.613281 98.207031 257.3125 107.582031 257.3125 107.582031 C 257.3125 107.582031 262.945312 100.101562 271.375 103.066406 C 277.953125 105.390625 280.660156 112.183594 278.46875 118.417969 Z M 278.46875 118.417969 " fill-opacity="1" fill-rule="nonzero"/></svg>